<svg xmlns="http://www.w3.org/2000/svg" viewBox="0 0 14 13" width="14" height="13">
	<style>
		tspan { white-space:pre }
		.shp0 { fill: #304ffe } 
	</style>
	<path id="Shape" class="shp0" d="M11.5,0c0.82,0 1.5,0.68 1.5,1.5v10c0,0.82 -0.68,1.5 -1.5,1.5h-10c-0.82,0 -1.5,-0.68 -1.5,-1.5v-10c0,-0.82 0.68,-1.5 1.5,-1.5zM1,1.5v10c0,0.28 0.22,0.5 0.5,0.5h10c0.28,0 0.5,-0.22 0.5,-0.5v-10c0,-0.28 -0.22,-0.5 -0.5,-0.5h-10c-0.28,0 -0.5,0.22 -0.5,0.5zM10,10c0,0.34 -0.03,0.67 -0.08,1h-1.01c0.05,-0.32 0.09,-0.66 0.09,-1c0,-3.31 -2.69,-6 -6,-6c-0.34,0 -0.68,0.04 -1,0.09v-1.01c0.33,-0.05 0.66,-0.08 1,-0.08c3.86,0 7,3.14 7,7zM7,10c0,0.35 -0.06,0.68 -0.14,1h-1.04c0.11,-0.31 0.18,-0.65 0.18,-1c0,-1.65 -1.35,-3 -3,-3c-0.35,0 -0.69,0.07 -1,0.18v-1.04c0.32,-0.08 0.65,-0.14 1,-0.14c2.21,0 4,1.79 4,4zM4,10c0,0.55 -0.45,1 -1,1c-0.55,0 -1,-0.45 -1,-1c0,-0.55 0.45,-1 1,-1c0.55,0 1,0.45 1,1z" />
</svg>