<svg xmlns="http://www.w3.org/2000/svg" viewBox="0 0 14 14" width="14" height="14">
	<style>
		tspan { white-space:pre }
		.shp0 { fill: #304ffe } 
	</style>
	<path id="Shape" class="shp0" d="M8.5,0c0.82,0 1.5,0.68 1.5,1.5v5c0,0.82 -0.68,1.5 -1.5,1.5h-2.84l-2.67,2v-2h-1.49c-0.82,0 -1.5,-0.68 -1.5,-1.5v-5c0,-0.82 0.68,-1.5 1.5,-1.5zM12.5,3c0.83,0 1.5,0.67 1.5,1.5v5c0,0.83 -0.67,1.5 -1.5,1.5h-1.5v2l-2.67,-2h-2.84c-0.53,0 -0.99,-0.27 -1.26,-0.69l1.75,-1.31c0.26,0 0.7,0 1.2,0l0,0h1.31c1.38,0 2.5,-1.12 2.5,-2.5v-3.5z" />
</svg>