<svg xmlns="http://www.w3.org/2000/svg" width="14" height="13"><style/><path id="Shape" d="M11.5 0c.82 0 1.5.68 1.5 1.5v10c0 .82-.68 1.5-1.5 1.5h-10C.68 13 0 12.32 0 11.5v-10C0 .68.68 0 1.5 0zM1 1.5v10c0 .28.22.5.5.5h10c.28 0 .5-.22.5-.5v-10c0-.28-.22-.5-.5-.5h-10c-.28 0-.5.22-.5.5zm9 8.5c0 .34-.03.67-.08 1H8.91c.05-.32.09-.66.09-1 0-3.31-2.69-6-6-6-.34 0-.68.04-1 .09V3.08c.33-.05.66-.08 1-.08 3.86 0 7 3.14 7 7zm-3 0c0 .35-.06.68-.14 1H5.82c.11-.31.18-.65.18-1 0-1.65-1.35-3-3-3-.35 0-.69.07-1 .18V6.14c.32-.08.65-.14 1-.14 2.21 0 4 1.79 4 4zm-3 0c0 .55-.45 1-1 1s-1-.45-1-1 .45-1 1-1 1 .45 1 1z" fill="#304ffe"/></svg>